<?xml version="1.0" standalone="no"?>
<!DOCTYPE svg PUBLIC "-//W3C//DTD SVG 20010904//EN"
 "http://www.w3.org/TR/2001/REC-SVG-20010904/DTD/svg10.dtd">
<svg version="1.0" xmlns="http://www.w3.org/2000/svg"
 width="100pt" height="40pt" viewBox="0 0 200.000000 93.000000"
 preserveAspectRatio="xMidYMid meet">
<metadata>
Created by potrace 1.15, written by Peter Selinger 2001-2017
</metadata>
<g transform="translate(0.000000,93.000000) scale(0.100000,-0.100000)"
fill="#000000" stroke="none">
<path d="M741 799 c-76 -30 -192 -135 -294 -265 -50 -65 -61 -73 -107 -84 -27
-7 -50 -17 -50 -22 0 -9 22 -7 72 8 14 4 8 -14 -26 -79 -46 -87 -72 -182 -62
-223 4 -14 16 -34 28 -46 18 -18 29 -20 82 -16 38 3 81 15 111 31 62 31 162
110 147 115 -7 2 -33 -14 -59 -36 -61 -51 -122 -82 -172 -89 -33 -5 -44 -1
-66 22 -24 23 -27 33 -23 73 5 49 42 139 93 229 23 41 42 59 85 82 149 80 330
237 330 286 0 22 -4 25 -32 24 -18 0 -44 -5 -57 -10z m49 -35 c0 -34 -155
-167 -285 -244 l-39 -24 34 48 c64 90 169 194 222 220 52 26 68 26 68 0z"/>
<path d="M1248 763 c-8 -10 -57 -97 -107 -194 -81 -154 -96 -178 -120 -182
-15 -3 -57 -33 -94 -65 -87 -80 -129 -94 -107 -38 16 42 12 81 -11 110 -23 30
-54 33 -88 10 -20 -15 -23 -23 -18 -67 3 -40 0 -58 -20 -93 -51 -90 4 -130 77
-56 44 43 107 73 95 44 -4 -9 -10 -27 -12 -39 -9 -40 38 -29 96 23 l51 46 0
-30 c0 -65 29 -52 157 71 52 50 87 77 93 71 6 -6 -4 -26 -25 -53 -39 -49 -48
-101 -17 -101 23 0 56 23 112 76 l45 43 0 -47 c0 -46 1 -47 32 -50 44 -4 87
20 164 95 39 37 70 60 73 54 8 -12 -2 -78 -16 -104 -9 -17 -11 -17 -34 -2 -23
15 -24 14 -24 -4 0 -11 9 -23 21 -26 26 -9 75 24 163 106 36 34 66 55 67 48 2
-24 -2 -73 -7 -91 -6 -20 -34 -24 -51 -7 -8 8 -13 8 -17 0 -20 -32 42 -42 85
-13 45 30 149 126 166 152 10 16 -3 8 -33 -20 -27 -25 -64 -59 -83 -75 l-34
-30 6 81 6 80 -92 -90 c-103 -102 -107 -101 -89 17 5 31 6 57 3 56 -3 0 -27
-26 -53 -58 -53 -66 -140 -136 -180 -146 -20 -5 -29 -2 -36 12 -9 16 -3 26 36
60 56 48 92 107 75 124 -20 20 -49 0 -155 -106 -57 -58 -112 -105 -121 -105
-23 0 -21 10 12 60 25 37 27 46 18 71 -9 22 -8 36 6 64 16 34 16 35 -3 35 -20
0 -34 -21 -44 -70 -3 -15 -41 -61 -86 -105 -86 -83 -109 -89 -96 -22 8 45 84
200 150 307 59 95 96 164 96 180 0 15 -15 12 -32 -7z"/>
</g>
</svg>
